<?xml version="1.0" encoding="utf-8"?>
<!-- Generator: Adobe Illustrator 24.1.2, SVG Export Plug-In . SVG Version: 6.00 Build 0)  -->
<svg version="1.1" id="Layer_1" xmlns="http://www.w3.org/2000/svg" xmlns:xlink="http://www.w3.org/1999/xlink" x="0px" y="0px"
	 viewBox="0 0 841.9 595.3" style="enable-background:new 0 0 841.9 595.3;" xml:space="preserve">
<style type="text/css">
	.st0{fill:#FFFFFF;stroke:#000000;stroke-width:1.071;}
	.st1{fill:#FFBBB1;stroke:#000000;stroke-width:1.071;}
	.st2{fill:none;stroke:#000000;stroke-width:1.071;}
	.st3{stroke:#000000;stroke-width:1.071;}
</style>
<g>
	<path class="st0" d="M209,405c0,11.8-19.2,21.4-42.8,21.4s-42.8-9.6-42.8-21.4s19.2-21.4,42.8-21.4S209,393.2,209,405z"/>
	<g transform="matrix(1,0,0,1,-935,374.19999999995343) translate(23.57999999999999 27.525)">
		<g id="a">
			<g transform="matrix(0.05,0,0,0.05,0,0)">
				<path id="ax" d="M144.8,398.5c0,1.7-1.1,2.6-2.8,2.6c-1.6,0-2.7-0.9-2.7-2.5v-4.2h0.9c0.2,2.4-0.9,6,1.8,6c2.7,0,1.7-3.6,1.9-6
					h0.9V398.5"/>
			</g>
			<g transform="matrix(0.05,0,0,0.05,12.950000000000001,0)">
				<path id="ay" d="M148.7,395.8c2.4-0.1,1.4,3.1,1.6,5.2h-0.9v-3.2c0-0.8-0.2-1.3-1-1.3c-1.9,0.1-1.2,2.7-1.3,4.5h-0.9l0-5.1h0.8
					c0,0.3,0,0.6,0.1,0.9C147.4,396.2,147.8,395.8,148.7,395.8"/>
			</g>
			<g transform="matrix(0.05,0,0,0.05,22.950000000000003,0)">
				<path id="az" d="M156.5,396.5c-1.8,0.1-1,2.8-1.2,4.5h-0.8v-3.2c0-0.8-0.1-1.3-0.9-1.3c-1.8,0.1-1,2.8-1.2,4.5h-0.8l0-5.1h0.8
					c0,0.3,0,0.6,0.1,0.9c0.3-1.2,2.7-1.3,2.9,0c0.3-0.6,0.7-0.9,1.6-1c2.3-0.1,1.3,3.2,1.5,5.2h-0.8v-3.2
					C157.5,397,157.4,396.4,156.5,396.5"/>
			</g>
			<g transform="matrix(0.05,0,0,0.05,37.900000000000006,0)">
				<path id="aA" d="M161.6,395.8c1.7,0,2.3,1.1,2.2,2.8h-3.6c0,1.1,0.4,1.8,1.4,1.8c0.7,0,1.2-0.3,1.3-0.8l0.7,0.2
					c-0.3,0.7-1,1.2-2.1,1.2c-1.6,0-2.4-1-2.3-2.7C159.4,396.8,160,395.8,161.6,395.8z M163,398c0.2-1.6-2-2.1-2.6-0.7
					c-0.1,0.2-0.2,0.5-0.2,0.7H163"/>
			</g>
			<g transform="matrix(0.05,0,0,0.05,47.900000000000006,0)">
				<path id="aB" d="M168.1,400c-0.4,0.6-0.8,1.1-1.8,1.1c-1,0-1.6-0.6-1.6-1.5c0-1.7,1.7-1.7,3.3-1.7c0.1-0.9-0.2-1.4-1.1-1.4
					c-0.6,0-1.1,0.2-1.1,0.8l-0.9-0.1c0.1-1,0.9-1.4,2-1.4c1.2,0,1.9,0.5,1.9,1.7v2.2c0,0.5,0.2,0.9,0.7,0.7v0.5
					C168.8,401.2,168,400.9,168.1,400z M165.6,399.6c0,0.5,0.3,0.9,0.9,0.9c1.1-0.1,1.7-0.8,1.6-2
					C166.9,398.5,165.6,398.3,165.6,399.6"/>
			</g>
			<g transform="matrix(0.05,0,0,0.05,57.900000000000006,0)">
				<path id="aC" d="M173.3,397.2c-0.1-0.9-2.3-1-2.3,0c0.4,1.4,3.1,0.3,3.2,2.4s-4,2-4.2,0.2l0.7-0.1c0.1,1,2.6,1.2,2.6,0
					c-0.3-1.5-3-0.4-3.2-2.4c-0.1-1.5,2.2-1.7,3.3-1.1c0.3,0.2,0.6,0.5,0.6,0.9"/>
			</g>
			<g transform="matrix(0.05,0,0,0.05,66.9,0)">
				<path id="aD" d="M176.7,401.1c-2.4,0.1-1.4-3.1-1.6-5.2h0.9v3.2c0,0.8,0.2,1.3,1,1.3c1.9-0.1,1.2-2.7,1.3-4.5h0.8l0,5.1h-0.8
					c0-0.3,0-0.7-0.1-0.9C178,400.7,177.6,401.1,176.7,401.1"/>
			</g>
			<g transform="matrix(0.05,0,0,0.05,76.9,0)">
				<path id="aE" d="M182.9,396.6c-2.1-0.4-1.4,2.4-1.5,4.4h-0.9l0-5.1h0.8c0,0.3,0,0.8,0.1,1c0.2-0.7,0.6-1.3,1.6-1.1V396.6"/>
			</g>
			<g transform="matrix(0.05,0,0,0.05,82.85000000000001,0)">
				<path id="aA_1_" d="M185.7,395.8c1.7,0,2.3,1.1,2.2,2.8h-3.6c0,1.1,0.4,1.8,1.4,1.8c0.7,0,1.2-0.3,1.3-0.8l0.7,0.2
					c-0.3,0.7-1,1.2-2.1,1.2c-1.6,0-2.4-1-2.3-2.7C183.4,396.8,184.1,395.8,185.7,395.8z M187.1,398c0.2-1.6-2-2.1-2.6-0.7
					c-0.1,0.2-0.2,0.5-0.2,0.7H187.1"/>
			</g>
			<g transform="matrix(0.05,0,0,0.05,92.85000000000001,0)">
				<path id="aF" d="M190.6,395.8c0.8,0,1.3,0.3,1.6,0.9l0-2.7h0.9l0,7h-0.8c-0.1-0.3,0-0.6-0.1-0.8c-0.3,0.6-0.7,0.9-1.6,0.9
					c-1.4,0-1.8-1-1.9-2.6C188.8,396.7,189.4,395.8,190.6,395.8z M190.9,396.4c-1.1,0-1.2,0.9-1.2,2c0,1.1,0.2,2,1.2,2
					c1.1,0,1.4-0.9,1.4-2C192.2,397.3,192,396.4,190.9,396.4"/>
			</g>
		</g>
	</g>
	<g transform="matrix(1,0,0,1,-935,374.19999999995343) translate(45.05499999999999 49.125)">
		<g id="b">
			<g transform="matrix(0.05,0,0,0.05,0,0)">
				<path id="aG" d="M151.8,406.7v2.5h3.7v0.7h-3.7v2.7h-0.9v-6.6h4.7v0.7H151.8"/>
			</g>
			<g transform="matrix(0.05,0,0,0.05,10.950000000000001,0)">
				<path id="aB_1_" d="M159.8,411.6c-0.4,0.6-0.8,1.1-1.8,1.1c-1,0-1.6-0.6-1.6-1.5c0-1.7,1.7-1.7,3.3-1.7c0.1-0.9-0.2-1.4-1.1-1.4
					c-0.6,0-1.1,0.2-1.1,0.8l-0.9-0.1c0.1-1,0.9-1.4,2-1.4c1.2,0,1.9,0.5,1.9,1.7v2.2c0,0.5,0.2,0.9,0.7,0.7v0.5
					C160.5,412.8,159.7,412.5,159.8,411.6z M157.3,411.1c0,0.5,0.3,0.9,0.9,0.9c1.1-0.1,1.7-0.8,1.6-2
					C158.6,410.1,157.3,409.9,157.3,411.1"/>
			</g>
			<g transform="matrix(0.05,0,0,0.05,20.950000000000003,0)">
				<path id="aH" d="M163.9,408c-1.1,0-1.3,0.9-1.3,2s0.2,2,1.3,2c0.6,0,1.1-0.4,1.2-1l0.9,0.1c-0.2,1-0.8,1.6-2,1.6
					c-1.6,0-2-1.1-2.2-2.7c-0.3-2.5,2.7-3.5,3.9-1.7c0.1,0.2,0.1,0.4,0.2,0.6L165,409C164.9,408.4,164.6,408,163.9,408"/>
			</g>
			<g transform="matrix(0.05,0,0,0.05,29.950000000000003,0)">
				<path id="aI" d="M167.8,411.3c-0.1,0.6,0.5,0.8,1,0.6v0.6c-0.9,0.3-1.9,0.1-1.9-1v-3.4h-0.6v-0.6h0.6l0.2-1.2h0.6v1.2h0.9v0.6
					h-0.9V411.3"/>
			</g>
			<g transform="matrix(0.05,0,0,0.05,34.95,0)">
				<path id="aJ" d="M171.5,407.4c1.7,0,2.3,1,2.3,2.7c0,1.7-0.7,2.7-2.3,2.7c-1.6,0-2.2-1-2.2-2.7
					C169.3,408.3,170,407.4,171.5,407.4z M171.5,412c1.2,0,1.4-0.8,1.4-2c0-1.2-0.2-2-1.4-2s-1.4,0.9-1.4,2
					C170.1,411.2,170.4,412,171.5,412"/>
			</g>
			<g transform="matrix(0.05,0,0,0.05,44.95,0)">
				<path id="aE_1_" d="M177.3,408.2c-2.1-0.4-1.4,2.4-1.5,4.4h-0.9l0-5.1h0.8c0,0.3,0,0.8,0.1,1c0.2-0.7,0.6-1.3,1.6-1.1V408.2"/>
			</g>
			<g transform="matrix(0.05,0,0,0.05,50.900000000000006,0)">
				<path id="aC_1_" d="M181,408.7c-0.1-0.9-2.3-1-2.3,0c0.4,1.4,3.1,0.3,3.2,2.4c0.1,2.1-4,2-4.2,0.2l0.7-0.1c0.1,1,2.6,1.2,2.6,0
					c-0.3-1.5-3-0.4-3.2-2.4c-0.1-1.5,2.2-1.7,3.3-1.1c0.3,0.2,0.6,0.5,0.6,0.9"/>
			</g>
		</g>
	</g>
	<path class="st0" d="M176.9,490.7h85.7v42.8h-85.7V490.7z"/>
	<g transform="matrix(1,0,0,1,-835,574.1999999999534) translate(32.55 38.4625)">
		<g id="c">
			<g transform="matrix(0.05,0,0,0.05,0,0)">
				<path id="aK" d="M197.8,507.3c2.3,0,5.1-0.4,5.1,2c0,2.1-2.1,2.1-4.2,2v2.6h-0.9V507.3z M198.7,510.7c1.5,0,3.3,0.3,3.3-1.3
					c0-1.6-1.8-1.3-3.3-1.3V510.7"/>
			</g>
			<g transform="matrix(0.05,0,0,0.05,12,0)">
				<path id="aJ_1_" d="M206.1,508.8c1.7,0,2.3,1,2.3,2.7c0,1.7-0.7,2.7-2.3,2.7c-1.6,0-2.2-1-2.2-2.7
					C203.8,509.6,204.6,508.8,206.1,508.8z M206.1,513.4c1.2,0,1.4-0.8,1.4-2c0-1.2-0.2-2-1.4-2c-1.2,0-1.4,0.9-1.4,2
					C204.7,512.6,205,513.4,206.1,513.4"/>
			</g>
			<g transform="matrix(0.05,0,0,0.05,22,0)">
				<path id="aL" d="M211.8,508.8c1.5,0,1.9,1.1,1.9,2.6c0,1.5-0.4,2.6-1.9,2.7c-0.8,0-1.3-0.3-1.6-0.9l0,2.8h-0.9l0-7.1h0.8
					l0.1,0.8C210.5,509.1,211,508.8,211.8,508.8z M211.6,513.4c1.1,0,1.2-0.9,1.2-2s-0.2-2-1.2-2c-1.1,0-1.4,0.9-1.4,2
					C210.3,512.6,210.5,513.4,211.6,513.4"/>
			</g>
			<g transform="matrix(0.05,0,0,0.05,32,0)">
				<path id="aD_1_" d="M216.4,514.1c-2.4,0.1-1.4-3.1-1.6-5.2h0.9v3.2c0,0.8,0.2,1.3,1,1.3c1.9-0.1,1.2-2.7,1.3-4.5h0.8l0,5.1H218
					c0-0.3,0-0.7-0.1-0.9C217.7,513.7,217.2,514,216.4,514.1"/>
			</g>
			<g transform="matrix(0.05,0,0,0.05,42,0)">
				<path id="aM" d="M220.1,514v-7h0.9v7H220.1"/>
			</g>
			<g transform="matrix(0.05,0,0,0.05,45.95,0)">
				<path id="aB_2_" d="M225.4,513c-0.4,0.6-0.8,1.1-1.8,1.1c-1,0-1.6-0.6-1.6-1.5c0-1.7,1.7-1.7,3.3-1.7c0.1-0.9-0.2-1.4-1.1-1.4
					c-0.6,0-1.1,0.2-1.1,0.8l-0.9-0.1c0.1-1,0.9-1.4,2-1.4c1.2,0,1.9,0.5,1.9,1.7v2.2c0,0.5,0.2,0.9,0.7,0.7v0.5
					C226.1,514.2,225.3,513.9,225.4,513z M222.9,512.5c0,0.5,0.3,0.9,0.9,0.9c1.1-0.1,1.7-0.8,1.6-2
					C224.2,511.5,222.9,511.3,222.9,512.5"/>
			</g>
			<g transform="matrix(0.05,0,0,0.05,55.95,0)">
				<path id="aI_1_" d="M228.5,512.7c-0.1,0.6,0.5,0.8,1,0.6v0.6c-0.9,0.3-1.9,0.1-1.9-1v-3.4h-0.6v-0.6h0.6l0.2-1.2h0.6v1.2h0.9
					v0.6h-0.9V512.7"/>
			</g>
			<g transform="matrix(0.05,0,0,0.05,60.95,0)">
				<path id="aN" d="M230.3,507.8V507h0.9v0.8H230.3z M230.3,514v-5.1h0.9v5.1H230.3"/>
			</g>
			<g transform="matrix(0.05,0,0,0.05,64.9,0)">
				<path id="aJ_2_" d="M234.4,508.8c1.7,0,2.3,1,2.3,2.7c0,1.7-0.7,2.7-2.3,2.7c-1.6,0-2.2-1-2.2-2.7
					C232.1,509.6,232.9,508.8,234.4,508.8z M234.4,513.4c1.2,0,1.4-0.8,1.4-2c0-1.2-0.2-2-1.4-2s-1.4,0.9-1.4,2
					C233,512.6,233.3,513.4,234.4,513.4"/>
			</g>
			<g transform="matrix(0.05,0,0,0.05,74.9,0)">
				<path id="ay_1_" d="M240.2,508.8c2.4-0.1,1.4,3.1,1.6,5.2H241v-3.2c0-0.8-0.2-1.3-1-1.3c-1.9,0.1-1.2,2.7-1.3,4.5h-0.9l0-5.1
					h0.8c0,0.3,0,0.6,0.1,0.9C238.9,509.1,239.4,508.8,240.2,508.8"/>
			</g>
		</g>
	</g>
	<path class="st0" d="M744.5,405c0,11.8-19.2,21.4-42.8,21.4c-23.7,0-42.8-9.6-42.8-21.4s19.2-21.4,42.8-21.4
		C725.3,383.6,744.5,393.2,744.5,405z"/>
	<g transform="matrix(1,0,0,1,65,374.19999999995343) translate(23.57999999999999 27.525)">
		<g id="a_1_">
			<g transform="matrix(0.05,0,0,0.05,0,0)">
				<path id="ax_1_" d="M680.3,398.5c0,1.7-1.1,2.6-2.8,2.6c-1.6,0-2.7-0.9-2.7-2.5v-4.2h0.9c0.2,2.4-0.9,6,1.8,6
					c2.7,0,1.7-3.6,1.9-6h0.9V398.5"/>
			</g>
			<g transform="matrix(0.05,0,0,0.05,12.950000000000001,0)">
				<path id="ay_2_" d="M684.2,395.8c2.4-0.1,1.4,3.1,1.6,5.2h-0.9v-3.2c0-0.8-0.2-1.3-1-1.3c-1.9,0.1-1.2,2.7-1.3,4.5h-0.9l0-5.1
					h0.8c0,0.3,0,0.6,0.1,0.9C682.9,396.2,683.3,395.8,684.2,395.8"/>
			</g>
			<g transform="matrix(0.05,0,0,0.05,22.950000000000003,0)">
				<path id="az_1_" d="M692,396.5c-1.8,0.1-1,2.8-1.2,4.5H690v-3.2c0-0.8-0.1-1.3-0.9-1.3c-1.8,0.1-1,2.8-1.2,4.5h-0.8l0-5.1h0.8
					c0,0.3,0,0.6,0.1,0.9c0.3-1.2,2.7-1.3,2.9,0c0.3-0.6,0.7-0.9,1.6-1c2.3-0.1,1.3,3.2,1.5,5.2H693v-3.2
					C693,397,692.8,396.4,692,396.5"/>
			</g>
			<g transform="matrix(0.05,0,0,0.05,37.900000000000006,0)">
				<path id="aA_2_" d="M697.1,395.8c1.7,0,2.3,1.1,2.2,2.8h-3.6c0,1.1,0.4,1.8,1.4,1.8c0.7,0,1.2-0.3,1.3-0.8l0.7,0.2
					c-0.3,0.7-1,1.2-2.1,1.2c-1.6,0-2.4-1-2.3-2.7C694.8,396.8,695.5,395.8,697.1,395.8z M698.5,398c0.2-1.6-2-2.1-2.6-0.7
					c-0.1,0.2-0.2,0.5-0.2,0.7H698.5"/>
			</g>
			<g transform="matrix(0.05,0,0,0.05,47.900000000000006,0)">
				<path id="aB_3_" d="M703.5,400c-0.4,0.6-0.8,1.1-1.8,1.1c-1,0-1.6-0.6-1.6-1.5c0-1.7,1.7-1.7,3.3-1.7c0.1-0.9-0.2-1.4-1.1-1.4
					c-0.6,0-1.1,0.2-1.1,0.8l-0.9-0.1c0.1-1,0.9-1.4,2-1.4c1.2,0,1.9,0.5,1.9,1.7v2.2c0,0.5,0.2,0.9,0.7,0.7v0.5
					C704.3,401.2,703.5,400.9,703.5,400z M701.1,399.6c0,0.5,0.3,0.9,0.9,0.9c1.1-0.1,1.7-0.8,1.6-2
					C702.4,398.5,701.1,398.3,701.1,399.6"/>
			</g>
			<g transform="matrix(0.05,0,0,0.05,57.900000000000006,0)">
				<path id="aC_2_" d="M708.7,397.2c-0.1-0.9-2.3-1-2.3,0c0.4,1.4,3.1,0.3,3.2,2.4c0.1,2.1-4,2-4.2,0.2l0.7-0.1
					c0.1,1,2.6,1.2,2.6,0c-0.3-1.5-3-0.4-3.2-2.4c-0.1-1.5,2.2-1.7,3.3-1.1c0.3,0.2,0.6,0.5,0.6,0.9"/>
			</g>
			<g transform="matrix(0.05,0,0,0.05,66.9,0)">
				<path id="aD_2_" d="M712.2,401.1c-2.4,0.1-1.4-3.1-1.6-5.2h0.9v3.2c0,0.8,0.2,1.3,1,1.3c1.9-0.1,1.2-2.7,1.3-4.5h0.8l0,5.1h-0.8
					c0-0.3,0-0.7-0.1-0.9C713.5,400.7,713.1,401.1,712.2,401.1"/>
			</g>
			<g transform="matrix(0.05,0,0,0.05,76.9,0)">
				<path id="aE_2_" d="M718.4,396.6c-2.1-0.4-1.4,2.4-1.5,4.4H716l0-5.1h0.8c0,0.3,0,0.8,0.1,1c0.2-0.7,0.6-1.3,1.6-1.1V396.6"/>
			</g>
			<g transform="matrix(0.05,0,0,0.05,82.85000000000001,0)">
				<path id="aA_3_" d="M721.2,395.8c1.7,0,2.3,1.1,2.2,2.8h-3.6c0,1.1,0.4,1.8,1.4,1.8c0.7,0,1.2-0.3,1.3-0.8l0.7,0.2
					c-0.3,0.7-1,1.2-2.1,1.2c-1.6,0-2.4-1-2.3-2.7C718.9,396.8,719.6,395.8,721.2,395.8z M722.6,398c0.2-1.6-2-2.1-2.6-0.7
					c-0.1,0.2-0.2,0.5-0.2,0.7H722.6"/>
			</g>
			<g transform="matrix(0.05,0,0,0.05,92.85000000000001,0)">
				<path id="aF_1_" d="M726.1,395.8c0.8,0,1.3,0.3,1.6,0.9l0-2.7h0.9l0,7h-0.8c-0.1-0.3,0-0.6-0.1-0.8c-0.3,0.6-0.7,0.9-1.6,0.9
					c-1.4,0-1.8-1-1.9-2.6C724.2,396.7,724.9,395.8,726.1,395.8z M726.4,396.4c-1.1,0-1.2,0.9-1.2,2c0,1.1,0.2,2,1.2,2
					c1.1,0,1.4-0.9,1.4-2C727.7,397.3,727.5,396.4,726.4,396.4"/>
			</g>
		</g>
	</g>
	<g transform="matrix(1,0,0,1,65,374.19999999995343) translate(45.05499999999999 49.125)">
		<g id="b_1_">
			<g transform="matrix(0.05,0,0,0.05,0,0)">
				<path id="aG_1_" d="M687.3,406.7v2.5h3.7v0.7h-3.7v2.7h-0.9v-6.6h4.7v0.7H687.3"/>
			</g>
			<g transform="matrix(0.05,0,0,0.05,10.950000000000001,0)">
				<path id="aB_4_" d="M695.3,411.6c-0.4,0.6-0.8,1.1-1.8,1.1c-1,0-1.6-0.6-1.6-1.5c0-1.7,1.7-1.7,3.3-1.7c0.1-0.9-0.2-1.4-1.1-1.4
					c-0.6,0-1.1,0.2-1.1,0.8l-0.9-0.1c0.1-1,0.9-1.4,2-1.4c1.2,0,1.9,0.5,1.9,1.7v2.2c0,0.5,0.2,0.9,0.7,0.7v0.5
					C696,412.8,695.2,412.5,695.3,411.6z M692.8,411.1c0,0.5,0.3,0.9,0.9,0.9c1.1-0.1,1.7-0.8,1.6-2
					C694.1,410.1,692.8,409.9,692.8,411.1"/>
			</g>
			<g transform="matrix(0.05,0,0,0.05,20.950000000000003,0)">
				<path id="aH_1_" d="M699.4,408c-1.1,0-1.3,0.9-1.3,2s0.2,2,1.3,2c0.6,0,1.1-0.4,1.2-1l0.9,0.1c-0.2,1-0.8,1.6-2,1.6
					c-1.6,0-2-1.1-2.2-2.7c-0.3-2.5,2.7-3.5,3.9-1.7c0.1,0.2,0.1,0.4,0.2,0.6l-0.9,0.1C700.4,408.4,700.1,408,699.4,408"/>
			</g>
			<g transform="matrix(0.05,0,0,0.05,29.950000000000003,0)">
				<path id="aI_2_" d="M703.2,411.3c-0.1,0.6,0.5,0.8,1,0.6v0.6c-0.9,0.3-1.9,0.1-1.9-1v-3.4h-0.6v-0.6h0.6l0.2-1.2h0.6v1.2h0.9
					v0.6h-0.9V411.3"/>
			</g>
			<g transform="matrix(0.05,0,0,0.05,34.95,0)">
				<path id="aJ_3_" d="M707,407.4c1.7,0,2.3,1,2.3,2.7c0,1.7-0.7,2.7-2.3,2.7s-2.2-1-2.2-2.7C704.7,408.3,705.5,407.4,707,407.4z
					 M707,412c1.2,0,1.4-0.8,1.4-2c0-1.2-0.2-2-1.4-2s-1.4,0.9-1.4,2C705.6,411.2,705.9,412,707,412"/>
			</g>
			<g transform="matrix(0.05,0,0,0.05,44.95,0)">
				<path id="aE_3_" d="M712.7,408.2c-2.1-0.4-1.4,2.4-1.5,4.4h-0.9l0-5.1h0.8c0,0.3,0,0.8,0.1,1c0.2-0.7,0.6-1.3,1.6-1.1V408.2"/>
			</g>
			<g transform="matrix(0.05,0,0,0.05,50.900000000000006,0)">
				<path id="aC_3_" d="M716.5,408.7c-0.1-0.9-2.3-1-2.3,0c0.4,1.4,3.1,0.3,3.2,2.4c0.1,2.1-4,2-4.2,0.2l0.7-0.1
					c0.1,1,2.6,1.2,2.6,0c-0.3-1.5-3-0.4-3.2-2.4c-0.1-1.5,2.2-1.7,3.3-1.1c0.3,0.2,0.6,0.5,0.6,0.9"/>
			</g>
		</g>
	</g>
	<path class="st1" d="M176.9,276.5h85.7v42.8h-85.7V276.5z"/>
	<g transform="matrix(1,0,0,1,-835,174.19999999995343) translate(34.525 38.4625)">
		<g id="d">
			<g transform="matrix(0.05,0,0,0.05,0,0)">
				<path id="aO" d="M204.3,295c0,1.1-0.6,1.7-1.6,1.9l1.9,2.9h-1l-1.7-2.8h-2.1v2.8h-0.9v-6.6C201.2,293.2,204.3,292.6,204.3,295z
					 M199.7,296.3c1.6-0.1,3.7,0.3,3.7-1.3c0-1.6-2.1-1.1-3.7-1.2V296.3"/>
			</g>
			<g transform="matrix(0.05,0,0,0.05,12.950000000000001,0)">
				<path id="aA_4_" d="M207.7,294.6c1.7,0,2.3,1.1,2.2,2.8h-3.6c0,1.1,0.4,1.8,1.4,1.8c0.7,0,1.2-0.3,1.3-0.8l0.7,0.2
					c-0.3,0.7-1,1.2-2.1,1.2c-1.6,0-2.4-1-2.3-2.7C205.4,295.6,206.1,294.6,207.7,294.6z M209.1,296.7c0.2-1.6-2-2.1-2.6-0.7
					c-0.1,0.2-0.2,0.5-0.2,0.7H209.1"/>
			</g>
			<g transform="matrix(0.05,0,0,0.05,22.950000000000003,0)">
				<path id="aC_4_" d="M214,295.9c-0.1-0.9-2.3-1-2.3,0c0.4,1.4,3.1,0.3,3.2,2.4c0.1,2.1-4,2-4.2,0.2l0.7-0.1c0.1,1,2.6,1.2,2.6,0
					c-0.3-1.5-3-0.4-3.2-2.4c-0.1-1.5,2.2-1.7,3.3-1.1c0.3,0.2,0.6,0.5,0.6,0.9"/>
			</g>
			<g transform="matrix(0.05,0,0,0.05,31.950000000000003,0)">
				<path id="aL_1_" d="M218.2,294.6c1.5,0,1.9,1.1,1.9,2.6c0,1.5-0.4,2.6-1.9,2.7c-0.8,0-1.3-0.3-1.6-0.9l0,2.8h-0.9l0-7.1h0.8
					l0.1,0.8C216.9,294.9,217.4,294.6,218.2,294.6z M218,299.2c1.1,0,1.2-0.9,1.2-2s-0.2-2-1.2-2c-1.1,0-1.4,0.9-1.4,2
					C216.7,298.4,216.9,299.2,218,299.2"/>
			</g>
			<g transform="matrix(0.05,0,0,0.05,41.95,0)">
				<path id="aJ_4_" d="M223.2,294.6c1.7,0,2.3,1,2.3,2.7c0,1.7-0.7,2.7-2.3,2.7c-1.6,0-2.2-1-2.2-2.7
					C220.9,295.4,221.7,294.6,223.2,294.6z M223.2,299.2c1.2,0,1.4-0.8,1.4-2c0-1.2-0.2-2-1.4-2c-1.2,0-1.4,0.9-1.4,2
					C221.8,298.4,222.1,299.2,223.2,299.2"/>
			</g>
			<g transform="matrix(0.05,0,0,0.05,51.95,0)">
				<path id="ay_3_" d="M229,294.6c2.4-0.1,1.4,3.1,1.6,5.2h-0.9v-3.2c0-0.8-0.2-1.3-1-1.3c-1.9,0.1-1.2,2.7-1.3,4.5h-0.9l0-5.1h0.8
					c0,0.3,0,0.6,0.1,0.9C227.7,294.9,228.1,294.6,229,294.6"/>
			</g>
			<g transform="matrix(0.05,0,0,0.05,61.95,0)">
				<path id="aC_5_" d="M234.8,295.9c-0.1-0.9-2.3-1-2.3,0c0.4,1.4,3.1,0.3,3.2,2.4s-4,2-4.2,0.2l0.7-0.1c0.1,1,2.6,1.2,2.6,0
					c-0.3-1.5-3-0.4-3.2-2.4c-0.1-1.5,2.2-1.7,3.3-1.1c0.3,0.2,0.6,0.5,0.6,0.9"/>
			</g>
			<g transform="matrix(0.05,0,0,0.05,70.95,0)">
				<path id="aA_5_" d="M238.7,294.6c1.7,0,2.3,1.1,2.2,2.8h-3.6c0,1.1,0.4,1.8,1.4,1.8c0.7,0,1.2-0.3,1.3-0.8l0.7,0.2
					c-0.3,0.7-1,1.2-2.1,1.2c-1.6,0-2.4-1-2.3-2.7C236.5,295.6,237.1,294.6,238.7,294.6z M240.1,296.7c0.2-1.6-2-2.1-2.6-0.7
					c-0.1,0.2-0.2,0.5-0.2,0.7H240.1"/>
			</g>
		</g>
	</g>
	<path class="st0" d="M396.4,405c0,11.8-19.2,21.4-42.8,21.4s-42.8-9.6-42.8-21.4s19.2-21.4,42.8-21.4S396.4,393.2,396.4,405z"/>
	<g transform="matrix(1,0,0,1,-585,374.19999999995343) translate(49.525 38.4625)">
		<g id="e">
			<g transform="matrix(0.05,0,0,0.05,0,0)">
				<path id="aP" d="M345.6,402.1c-0.3-0.7-0.9-1.2-2-1.2c-1.6,0-2.3,1.1-2.3,2.7c0,1.6,0.8,2.7,2.4,2.7c1.2,0,1.7-0.6,2.1-1.4
					l0.7,0.4c-0.5,1-1.4,1.8-2.9,1.8c-2.1,0-3.1-1.3-3.2-3.5c-0.2-2.8,2.7-4.1,5-3c0.5,0.2,0.8,0.7,1,1.2"/>
			</g>
			<g transform="matrix(0.05,0,0,0.05,12.950000000000001,0)">
				<path id="aB_5_" d="M350.7,405.9c-0.4,0.6-0.8,1.1-1.8,1.1c-1,0-1.6-0.6-1.6-1.5c0-1.7,1.7-1.7,3.3-1.7c0.1-0.9-0.2-1.4-1.1-1.4
					c-0.6,0-1.1,0.2-1.1,0.8l-0.9-0.1c0.1-1,0.9-1.4,2-1.4c1.2,0,1.9,0.5,1.9,1.7v2.2c0,0.5,0.2,0.9,0.7,0.7v0.5
					C351.4,407.1,350.6,406.8,350.7,405.9z M348.2,405.4c0,0.5,0.3,0.9,0.9,0.9c1.1-0.1,1.7-0.8,1.6-2
					C349.5,404.4,348.2,404.2,348.2,405.4"/>
			</g>
			<g transform="matrix(0.05,0,0,0.05,22.950000000000003,0)">
				<path id="aC_6_" d="M355.9,403c-0.1-0.9-2.3-1-2.3,0c0.4,1.4,3.1,0.3,3.2,2.4c0.1,2.1-4,2-4.2,0.2l0.7-0.1c0.1,1,2.6,1.2,2.6,0
					c-0.3-1.5-3-0.4-3.2-2.4c-0.1-1.5,2.2-1.7,3.3-1.1c0.3,0.2,0.6,0.5,0.6,0.9"/>
			</g>
			<g transform="matrix(0.05,0,0,0.05,31.950000000000003,0)">
				<path id="aA_6_" d="M359.7,401.7c1.7,0,2.3,1.1,2.2,2.8h-3.6c0,1.1,0.4,1.8,1.4,1.8c0.7,0,1.2-0.3,1.3-0.8l0.7,0.2
					c-0.3,0.7-1,1.2-2.1,1.2c-1.6,0-2.4-1-2.3-2.7C357.5,402.7,358.2,401.7,359.7,401.7z M361.1,403.8c0.2-1.6-2-2.1-2.6-0.7
					c-0.1,0.2-0.2,0.5-0.2,0.7H361.1"/>
			</g>
			<g transform="matrix(0.05,0,0,0.05,41.95,0)">
				<path id="aC_7_" d="M366,403c-0.1-0.9-2.3-1-2.3,0c0.4,1.4,3.1,0.3,3.2,2.4c0.1,2.1-4,2-4.2,0.2l0.7-0.1c0.1,1,2.6,1.2,2.6,0
					c-0.3-1.5-3-0.4-3.2-2.4c-0.1-1.5,2.2-1.7,3.3-1.1c0.3,0.2,0.6,0.5,0.6,0.9"/>
			</g>
		</g>
	</g>
	<path class="st0" d="M583.9,405c0,11.8-19.2,21.4-42.8,21.4c-23.7,0-42.8-9.6-42.8-21.4s19.2-21.4,42.8-21.4
		C564.7,383.6,583.9,393.2,583.9,405z"/>
	<g transform="matrix(1,0,0,1,-235,374.19999999995343) translate(46.525 38.4625)">
		<g id="f">
			<g transform="matrix(0.05,0,0,0.05,0,0)">
				<path id="aQ" d="M526.6,400.2c3.2-0.2,5.8,0.2,5.7,3.3c-0.1,2.1-1.2,3.4-3.2,3.4h-2.5V400.2z M527.5,406.1
					c2.4,0.2,3.9-0.4,3.9-2.7c0-2.2-1.6-2.7-3.9-2.5V406.1"/>
			</g>
			<g transform="matrix(0.05,0,0,0.05,12.950000000000001,0)">
				<path id="aA_7_" d="M535.4,401.7c1.7,0,2.3,1.1,2.2,2.8H534c0,1.1,0.4,1.8,1.4,1.8c0.7,0,1.2-0.3,1.3-0.8l0.7,0.2
					c-0.3,0.7-1,1.2-2.1,1.2c-1.6,0-2.4-1-2.3-2.7C533.1,402.7,533.8,401.7,535.4,401.7z M536.8,403.8c0.2-1.6-2-2.1-2.6-0.7
					c-0.1,0.2-0.2,0.5-0.2,0.7H536.8"/>
			</g>
			<g transform="matrix(0.05,0,0,0.05,22.950000000000003,0)">
				<path id="aB_6_" d="M541.8,405.9c-0.4,0.6-0.8,1.1-1.8,1.1c-1,0-1.6-0.6-1.6-1.5c0-1.7,1.7-1.7,3.3-1.7c0.1-0.9-0.2-1.4-1.1-1.4
					c-0.6,0-1.1,0.2-1.1,0.8l-0.9-0.1c0.1-1,0.9-1.4,2-1.4c1.2,0,1.9,0.5,1.9,1.7v2.2c0,0.5,0.2,0.9,0.7,0.7v0.5
					C542.6,407.1,541.8,406.8,541.8,405.9z M539.3,405.4c0,0.5,0.3,0.9,0.9,0.9c1.1-0.1,1.7-0.8,1.6-2
					C540.7,404.4,539.3,404.2,539.3,405.4"/>
			</g>
			<g transform="matrix(0.05,0,0,0.05,32.95,0)">
				<path id="aI_3_" d="M545,405.6c-0.1,0.6,0.5,0.8,1,0.6v0.6c-0.9,0.3-1.9,0.1-1.9-1v-3.4h-0.6v-0.6h0.6l0.2-1.2h0.6v1.2h0.9v0.6
					H545V405.6"/>
			</g>
			<g transform="matrix(0.05,0,0,0.05,37.95,0)">
				<path id="aR" d="M548.9,402.3c-1.9,0-1.2,2.7-1.3,4.5h-0.9v-7h0.9l0,2.8c0.3-0.6,0.7-1,1.6-1c2.4,0,1.4,3.1,1.6,5.2H550v-3.2
					C550,402.8,549.8,402.3,548.9,402.3"/>
			</g>
			<g transform="matrix(0.05,0,0,0.05,47.95,0)">
				<path id="aC_8_" d="M555.1,403c-0.1-0.9-2.3-1-2.3,0c0.4,1.4,3.1,0.3,3.2,2.4c0.1,2.1-4,2-4.2,0.2l0.7-0.1c0.1,1,2.6,1.2,2.6,0
					c-0.3-1.5-3-0.4-3.2-2.4c-0.1-1.5,2.2-1.7,3.3-1.1c0.3,0.2,0.6,0.5,0.6,0.9"/>
			</g>
		</g>
	</g>
	<path class="st2" d="M263.6,512.1l7.2-0.1l7.1-0.4l6.6-0.7l6.2-0.9l5.9-1.1l5.6-1.3l5.4-1.5l5.2-1.7l5.1-1.9l5-2.1l5-2.4l5.1-2.7
		l5.2-3l5.5-3.5l6-4.2l6.9-5.2l9-7.5l38.8-34.2l6.9-5.2l6-4.1l5.5-3.5l5.2-3l5.1-2.7l5-2.4l5-2.1l5.1-1.9l5.2-1.7l5.4-1.5l5.6-1.3
		l5.9-1.1l6.2-0.9l6.6-0.7l4.9-0.3"/>
	<path d="M263.7,512.6l-0.6,0v-1.1l0.5,0L263.7,512.6z"/>
	<path class="st3" d="M495.9,405.1l-7.6,2.7l-0.1-5L495.9,405.1z"/>
	<path class="st2" d="M263.6,297.9l7.2,0.1l7.1,0.4l6.6,0.7l6.2,0.9l5.9,1.1l5.6,1.3l5.4,1.5l5.2,1.7l5.1,1.9l5,2.1l5,2.4l5.1,2.7
		l5.2,3l5.5,3.5l6,4.2l6.9,5.2l9,7.5l38.8,34.2l6.9,5.2l6,4.1l5.5,3.5l5.2,3l5.1,2.7l5,2.4l5,2.1l5.1,1.9l5.2,1.7l5.4,1.5l5.6,1.3
		l5.9,1.1l6.2,0.9l6.6,0.7l4.9,0.3"/>
	<path d="M263.7,297.4l0,1.1l-0.5,0v-1.1L263.7,297.4z"/>
	<path class="st3" d="M495.9,404.9l-7.7,2.2l0.1-5L495.9,404.9z"/>
	<path class="st2" d="M263.6,512.1h0.1l0.3,0l0.3-0.1l0.3-0.1l0.3-0.1l0.3-0.1l0.3-0.1l0.3-0.1l0.3-0.1l0.3-0.2l0.3-0.2l0.3-0.2
		l0.4-0.2l0.4-0.3l0.4-0.3l0.4-0.3l0.4-0.4l0.4-0.4l0.5-0.5l0.5-0.6l0.5-0.7l0.6-0.8l0.6-1l0.7-1.2l0.8-1.4l0.9-1.8l1-2.3l1.2-3
		l1.5-4.2l1.9-6.4l3.1-12.4L293,432l1.9-6.4l1.5-4.2l1.2-3l1-2.3l0.9-1.8l0.8-1.4l0.7-1.2l0.6-1l0.5-0.7"/>
	<path d="M263.7,512.6l-0.6,0v-1.1l0.5,0L263.7,512.6z"/>
	<path class="st3" d="M308.7,405.9l-5.2,6.1l-2.6-4.2L308.7,405.9z"/>
	<path class="st2" d="M210.1,405h90.2"/>
	<path d="M210.1,405.5h-0.6l0-0.5v-0.1l0-0.4h0.6V405.5z"/>
	<path class="st3" d="M308.5,405l-7.6,2.5v-5L308.5,405z"/>
	<path class="st2" d="M263.6,297.9h0.1l0.3,0l0.3,0.1l0.3,0.1l0.3,0.1l0.3,0.1l0.3,0.1l0.3,0.1l0.3,0.1l0.3,0.2l0.3,0.2l0.3,0.2
		l0.4,0.2l0.4,0.3l0.4,0.3l0.4,0.3l0.4,0.4l0.4,0.4l0.5,0.5l0.5,0.6l0.5,0.7l0.6,0.8l0.6,1l0.7,1.2l0.8,1.4l0.9,1.8l1,2.3l1.2,3
		l1.5,4.2l1.9,6.4l3.1,12.4L293,378l1.9,6.4l1.5,4.2l1.2,3l1,2.3l0.9,1.8l0.8,1.4l0.7,1.2l0.6,1l0.5,0.7"/>
	<path d="M263.7,297.4l0,1.1l-0.5,0v-1.1L263.7,297.4z"/>
	<path class="st3" d="M308.7,404.1l-7.8-1.9l2.6-4.2L308.7,404.1z"/>
	<path class="st2" d="M657.7,405h-63.5"/>
	<path d="M658.3,405v0.1l0,0.4h-0.6v-1.1h0.6L658.3,405z"/>
	<path class="st3" d="M586.1,405l7.6-2.5v5L586.1,405z"/>
	<path class="st1" d="M487.5,94.4c0,11.8-19.2,21.4-42.8,21.4c-23.7,0-42.8-9.6-42.8-21.4S421,73,444.6,73
		C468.3,73,487.5,82.6,487.5,94.4z"/>
	<g transform="matrix(1,0,0,1,-415,-205.80000000004657) translate(17.549999999999997 38.4625)">
		<g id="g">
			<g transform="matrix(0.05,0,0,0.05,0,0)">
				<path id="aS" d="M418.8,91.2c-0.1-1.3-3.3-1.4-3.3,0.1c0.4,2,4.2,0.4,4.4,3.2c0.1,2.1-3.2,2.3-4.7,1.5c-0.5-0.3-0.7-0.7-0.9-1.2
					l0.9-0.2c0.1,1.5,3.8,1.7,3.8,0c0-2.1-4.2-0.4-4.3-3.2c-0.1-2.2,3.9-2.2,4.8-0.9c0.1,0.2,0.2,0.4,0.3,0.7"/>
			</g>
			<g transform="matrix(0.05,0,0,0.05,12,0)">
				<path id="aR_1_" d="M423.1,91.7c-1.9,0-1.2,2.7-1.3,4.5H421v-7h0.9l0,2.8c0.3-0.6,0.7-1,1.6-1c2.4,0,1.4,3.1,1.6,5.2h-0.9V93
					C424.2,92.2,424,91.7,423.1,91.7"/>
			</g>
			<g transform="matrix(0.05,0,0,0.05,22,0)">
				<path id="aB_7_" d="M429.4,95.3c-0.4,0.6-0.8,1.1-1.8,1.1c-1,0-1.6-0.6-1.6-1.5c0-1.7,1.7-1.7,3.3-1.7c0.1-0.9-0.2-1.4-1.1-1.4
					c-0.6,0-1.1,0.2-1.1,0.8l-0.9-0.1c0.1-1,0.9-1.4,2-1.4c1.2,0,1.9,0.5,1.9,1.7V95c0,0.5,0.2,0.9,0.7,0.7v0.5
					C430.2,96.5,429.4,96.2,429.4,95.3z M426.9,94.9c0,0.5,0.3,0.9,0.9,0.9c1.1-0.1,1.7-0.8,1.6-2C428.2,93.8,426.9,93.6,426.9,94.9
					"/>
			</g>
			<g transform="matrix(0.05,0,0,0.05,32,0)">
				<path id="aE_4_" d="M434,91.9c-2.1-0.4-1.4,2.4-1.5,4.4h-0.9l0-5.1h0.8c0,0.3,0,0.8,0.1,1c0.2-0.7,0.6-1.3,1.6-1.1V91.9"/>
			</g>
			<g transform="matrix(0.05,0,0,0.05,37.95,0)">
				<path id="aA_8_" d="M436.9,91.1c1.7,0,2.3,1.1,2.2,2.8h-3.6c0,1.1,0.4,1.8,1.4,1.8c0.7,0,1.2-0.3,1.3-0.8l0.7,0.2
					c-0.3,0.7-1,1.2-2.1,1.2c-1.6,0-2.4-1-2.3-2.7C434.6,92.1,435.3,91.1,436.9,91.1z M438.3,93.2c0.2-1.6-2-2.1-2.6-0.7
					c-0.1,0.2-0.2,0.5-0.2,0.7H438.3"/>
			</g>
			<g transform="matrix(0.05,0,0,0.05,47.95,0)">
				<path id="aF_2_" d="M441.8,91.1c0.8,0,1.3,0.3,1.6,0.9l0-2.7h0.9l0,7h-0.8c-0.1-0.3,0-0.6-0.1-0.8c-0.3,0.6-0.7,0.9-1.6,0.9
					c-1.4,0-1.8-1-1.9-2.6C439.9,92,440.6,91.1,441.8,91.1z M442.1,91.7c-1.1,0-1.2,0.9-1.2,2c0,1.1,0.2,2,1.2,2
					c1.1,0,1.4-0.9,1.4-2C443.4,92.6,443.2,91.7,442.1,91.7"/>
			</g>
		</g>
	</g>
	<g transform="matrix(1,0,0,1,-415,-205.80000000004657) translate(80.5 38.4625)">
		<g id="h">
			<g transform="matrix(0.05,0,0,0.05,0,0)">
				<path id="aP_1_" d="M453.2,91.5c-0.3-0.7-0.9-1.2-2-1.2c-1.6,0-2.3,1.1-2.3,2.7c0,1.6,0.8,2.7,2.4,2.7c1.2,0,1.7-0.6,2.1-1.4
					l0.7,0.4c-0.5,1-1.4,1.8-2.9,1.8c-2.1,0-3.1-1.3-3.2-3.5c-0.2-2.8,2.7-4.1,5-3c0.5,0.2,0.8,0.7,1,1.2"/>
			</g>
			<g transform="matrix(0.05,0,0,0.05,12.950000000000001,0)">
				<path id="aB_8_" d="M458.3,95.3c-0.4,0.6-0.8,1.1-1.8,1.1c-1,0-1.6-0.6-1.6-1.5c0-1.7,1.7-1.7,3.3-1.7c0.1-0.9-0.2-1.4-1.1-1.4
					c-0.6,0-1.1,0.2-1.1,0.8l-0.9-0.1c0.1-1,0.9-1.4,2-1.4c1.2,0,1.9,0.5,1.9,1.7V95c0,0.5,0.2,0.9,0.7,0.7v0.5
					C459,96.5,458.2,96.2,458.3,95.3z M455.8,94.9c0,0.5,0.3,0.9,0.9,0.9c1.1-0.1,1.7-0.8,1.6-2C457.1,93.8,455.8,93.6,455.8,94.9"
					/>
			</g>
			<g transform="matrix(0.05,0,0,0.05,22.950000000000003,0)">
				<path id="aD_3_" d="M462.1,96.4c-2.4,0.1-1.4-3.1-1.6-5.2h0.9v3.2c0,0.8,0.2,1.3,1,1.3c1.9-0.1,1.2-2.7,1.3-4.5h0.8l0,5.1h-0.8
					c0-0.3,0-0.7-0.1-0.9C463.4,96,463,96.4,462.1,96.4"/>
			</g>
			<g transform="matrix(0.05,0,0,0.05,32.95,0)">
				<path id="aC_9_" d="M468.8,92.4c-0.1-0.9-2.3-1-2.3,0c0.4,1.4,3.1,0.3,3.2,2.4c0.1,2.1-4,2-4.2,0.2l0.7-0.1c0.1,1,2.6,1.2,2.6,0
					c-0.3-1.5-3-0.4-3.2-2.4c-0.1-1.5,2.2-1.7,3.3-1.1c0.3,0.2,0.6,0.5,0.6,0.9"/>
			</g>
			<g transform="matrix(0.05,0,0,0.05,41.95,0)">
				<path id="aA_9_" d="M472.7,91.1c1.7,0,2.3,1.1,2.2,2.8h-3.6c0,1.1,0.4,1.8,1.4,1.8c0.7,0,1.2-0.3,1.3-0.8l0.7,0.2
					c-0.3,0.7-1,1.2-2.1,1.2c-1.6,0-2.4-1-2.3-2.7C470.5,92.1,471.1,91.1,472.7,91.1z M474.1,93.2c0.2-1.6-2-2.1-2.6-0.7
					c-0.1,0.2-0.2,0.5-0.2,0.7H474.1"/>
			</g>
		</g>
	</g>
	<path class="st0" d="M310.8,255.1h85.7v42.8h-85.7V255.1z"/>
	<g transform="matrix(1,0,0,1,-585,134.19999999995343) translate(8.074999999999989 38.4625)">
		<g id="i">
			<g transform="matrix(0.05,0,0,0.05,0,0)">
				<path id="aO_1_" d="M324,273.6c0,1.1-0.6,1.7-1.6,1.9l1.9,2.9h-1l-1.7-2.8h-2.1v2.8h-0.9v-6.6C320.9,271.8,324,271.1,324,273.6z
					 M319.4,274.9c1.6-0.1,3.7,0.3,3.7-1.3c0-1.6-2.1-1.1-3.7-1.2V274.9"/>
			</g>
			<g transform="matrix(0.05,0,0,0.05,12.950000000000001,0)">
				<path id="aA_10_" d="M327.4,273.1c1.7,0,2.3,1.1,2.2,2.8H326c0,1.1,0.4,1.8,1.4,1.8c0.7,0,1.2-0.3,1.3-0.8l0.7,0.2
					c-0.3,0.7-1,1.2-2.1,1.2c-1.6,0-2.4-1-2.3-2.7C325.1,274.1,325.8,273.1,327.4,273.1z M328.8,275.3c0.2-1.6-2-2.1-2.6-0.7
					c-0.1,0.2-0.2,0.5-0.2,0.7H328.8"/>
			</g>
			<g transform="matrix(0.05,0,0,0.05,22.950000000000003,0)">
				<path id="aH_2_" d="M332.6,273.8c-1.1,0-1.3,0.9-1.3,2c0,1.1,0.2,2,1.3,2c0.6,0,1.1-0.4,1.2-1l0.9,0.1c-0.2,1-0.8,1.6-2,1.6
					c-1.6,0-2-1.1-2.2-2.7c-0.3-2.5,2.7-3.5,3.9-1.7c0.1,0.2,0.1,0.4,0.2,0.6l-0.9,0.1C333.6,274.2,333.3,273.8,332.6,273.8"/>
			</g>
			<g transform="matrix(0.05,0,0,0.05,31.950000000000003,0)">
				<path id="aJ_5_" d="M337.5,273.1c1.7,0,2.3,1,2.3,2.7c0,1.7-0.7,2.7-2.3,2.7s-2.2-1-2.2-2.7C335.3,274,336,273.1,337.5,273.1z
					 M337.5,277.8c1.2,0,1.4-0.8,1.4-2c0-1.2-0.2-2-1.4-2c-1.2,0-1.4,0.9-1.4,2C336.1,276.9,336.4,277.8,337.5,277.8"/>
			</g>
			<g transform="matrix(0.05,0,0,0.05,41.95,0)">
				<path id="aE_5_" d="M343.3,274c-2.1-0.4-1.4,2.4-1.5,4.4h-0.9l0-5.1h0.8c0,0.3,0,0.8,0.1,1c0.2-0.7,0.6-1.3,1.6-1.1V274"/>
			</g>
			<g transform="matrix(0.05,0,0,0.05,47.900000000000006,0)">
				<path id="aF_3_" d="M345.7,273.1c0.8,0,1.3,0.3,1.6,0.9l0-2.7h0.9l0,7h-0.8c-0.1-0.3,0-0.6-0.1-0.8c-0.3,0.6-0.7,0.9-1.6,0.9
					c-1.4,0-1.8-1-1.9-2.6C343.8,274.1,344.4,273.1,345.7,273.1z M345.9,273.8c-1.1,0-1.2,0.9-1.2,2c0,1.1,0.2,2,1.2,2
					c1.1,0,1.4-0.9,1.4-2C347.3,274.6,347,273.8,345.9,273.8"/>
			</g>
			<g transform="matrix(0.05,0,0,0.05,57.900000000000006,0)">
				<path id="aA_11_" d="M351.4,273.1c1.7,0,2.3,1.1,2.2,2.8h-3.6c0,1.1,0.4,1.8,1.4,1.8c0.7,0,1.2-0.3,1.3-0.8l0.7,0.2
					c-0.3,0.7-1,1.2-2.1,1.2c-1.6,0-2.4-1-2.3-2.7C349.2,274.1,349.9,273.1,351.4,273.1z M352.8,275.3c0.2-1.6-2-2.1-2.6-0.7
					c-0.1,0.2-0.2,0.5-0.2,0.7H352.8"/>
			</g>
			<g transform="matrix(0.05,0,0,0.05,67.9,0)">
				<path id="aF_4_" d="M356.4,273.1c0.8,0,1.3,0.3,1.6,0.9l0-2.7h0.9l0,7h-0.8c-0.1-0.3,0-0.6-0.1-0.8c-0.3,0.6-0.7,0.9-1.6,0.9
					c-1.4,0-1.8-1-1.9-2.6C354.5,274.1,355.1,273.1,356.4,273.1z M356.6,273.8c-1.1,0-1.2,0.9-1.2,2c0,1.1,0.2,2,1.2,2
					c1.1,0,1.4-0.9,1.4-2C358,274.6,357.7,273.8,356.6,273.8"/>
			</g>
		</g>
	</g>
	<g transform="matrix(1,0,0,1,-585,134.19999999995343) translate(90.975 38.4625)">
		<g id="j">
			<g transform="matrix(0.05,0,0,0.05,0,0)">
				<path id="aP_2_" d="M367.8,273.5c-0.3-0.7-0.9-1.2-2-1.2c-1.6,0-2.3,1.1-2.3,2.7c0,1.6,0.8,2.7,2.4,2.7c1.2,0,1.7-0.6,2.1-1.4
					l0.7,0.4c-0.5,1-1.4,1.8-2.9,1.8c-2.1,0-3.1-1.3-3.2-3.5c-0.2-2.8,2.7-4.1,5-3c0.5,0.2,0.8,0.7,1,1.2"/>
			</g>
			<g transform="matrix(0.05,0,0,0.05,12.950000000000001,0)">
				<path id="aB_9_" d="M372.9,277.4c-0.4,0.6-0.8,1.1-1.8,1.1c-1,0-1.6-0.6-1.6-1.5c0-1.7,1.7-1.7,3.3-1.7c0.1-0.9-0.2-1.4-1.1-1.4
					c-0.6,0-1.1,0.2-1.1,0.8l-0.9-0.1c0.1-1,0.9-1.4,2-1.4c1.2,0,1.9,0.5,1.9,1.7v2.2c0,0.5,0.2,0.9,0.7,0.7v0.5
					C373.6,278.6,372.8,278.3,372.9,277.4z M370.4,276.9c0,0.5,0.3,0.9,0.9,0.9c1.1-0.1,1.7-0.8,1.6-2
					C371.7,275.9,370.4,275.7,370.4,276.9"/>
			</g>
			<g transform="matrix(0.05,0,0,0.05,22.950000000000003,0)">
				<path id="aC_10_" d="M378.1,274.5c-0.1-0.9-2.3-1-2.3,0c0.4,1.4,3.1,0.3,3.2,2.4c0.1,2.1-4,2-4.2,0.2l0.7-0.1
					c0.1,1,2.6,1.2,2.6,0c-0.3-1.5-3-0.4-3.2-2.4c-0.1-1.5,2.2-1.7,3.3-1.1c0.3,0.2,0.6,0.5,0.6,0.9"/>
			</g>
			<g transform="matrix(0.05,0,0,0.05,31.950000000000003,0)">
				<path id="aA_12_" d="M381.9,273.1c1.7,0,2.3,1.1,2.2,2.8h-3.6c0,1.1,0.4,1.8,1.4,1.8c0.7,0,1.2-0.3,1.3-0.8l0.7,0.2
					c-0.3,0.7-1,1.2-2.1,1.2c-1.6,0-2.4-1-2.3-2.7C379.7,274.1,380.4,273.1,381.9,273.1z M383.3,275.3c0.2-1.6-2-2.1-2.6-0.7
					c-0.1,0.2-0.2,0.5-0.2,0.7H383.3"/>
			</g>
			<g transform="matrix(0.05,0,0,0.05,41.95,0)">
				<path id="aC_11_" d="M388.2,274.5c-0.1-0.9-2.3-1-2.3,0c0.4,1.4,3.1,0.3,3.2,2.4s-4,2-4.2,0.2l0.7-0.1c0.1,1,2.6,1.2,2.6,0
					c-0.3-1.5-3-0.4-3.2-2.4c-0.1-1.5,2.2-1.7,3.3-1.1c0.3,0.2,0.6,0.5,0.6,0.9"/>
			</g>
		</g>
	</g>
	<path class="st2" d="M353.6,299v74.2"/>
	<path d="M354.1,299h-1.1v-0.6h1.1V299z"/>
	<path class="st3" d="M353.6,381.3l-2.5-7.6h5L353.6,381.3z"/>
	<path class="st0" d="M498.2,255.1h85.7v42.8h-85.7V255.1z"/>
	<g transform="matrix(1,0,0,1,-235,134.19999999995343) translate(5.074999999999989 38.4625)">
		<g id="i_1_">
			<g transform="matrix(0.05,0,0,0.05,0,0)">
				<path id="aO_2_" d="M509.8,273.6c0,1.1-0.6,1.7-1.6,1.9l1.9,2.9h-1l-1.7-2.8h-2.1v2.8h-0.9v-6.6
					C506.7,271.8,509.9,271.1,509.8,273.6z M505.3,274.9c1.6-0.1,3.7,0.3,3.7-1.3c0-1.6-2.1-1.1-3.7-1.2V274.9"/>
			</g>
			<g transform="matrix(0.05,0,0,0.05,12.950000000000001,0)">
				<path id="aA_13_" d="M513.2,273.1c1.7,0,2.3,1.1,2.2,2.8h-3.6c0,1.1,0.4,1.8,1.4,1.8c0.7,0,1.2-0.3,1.3-0.8l0.7,0.2
					c-0.3,0.7-1,1.2-2.1,1.2c-1.6,0-2.4-1-2.3-2.7C510.9,274.1,511.6,273.1,513.2,273.1z M514.6,275.3c0.2-1.6-2-2.1-2.6-0.7
					c-0.1,0.2-0.2,0.5-0.2,0.7H514.6"/>
			</g>
			<g transform="matrix(0.05,0,0,0.05,22.950000000000003,0)">
				<path id="aH_3_" d="M518.4,273.8c-1.1,0-1.3,0.9-1.3,2c0,1.1,0.2,2,1.3,2c0.6,0,1.1-0.4,1.2-1l0.9,0.1c-0.2,1-0.8,1.6-2,1.6
					c-1.6,0-2-1.1-2.2-2.7c-0.3-2.5,2.7-3.5,3.9-1.7c0.1,0.2,0.1,0.4,0.2,0.6l-0.9,0.1C519.4,274.2,519.1,273.8,518.4,273.8"/>
			</g>
			<g transform="matrix(0.05,0,0,0.05,31.950000000000003,0)">
				<path id="aJ_6_" d="M523.4,273.1c1.7,0,2.3,1,2.3,2.7c0,1.7-0.7,2.7-2.3,2.7c-1.6,0-2.2-1-2.2-2.7
					C521.1,274,521.8,273.1,523.4,273.1z M523.3,277.8c1.2,0,1.4-0.8,1.4-2c0-1.2-0.2-2-1.4-2s-1.4,0.9-1.4,2
					C522,276.9,522.2,277.8,523.3,277.8"/>
			</g>
			<g transform="matrix(0.05,0,0,0.05,41.95,0)">
				<path id="aE_6_" d="M529.1,274c-2.1-0.4-1.4,2.4-1.5,4.4h-0.9l0-5.1h0.8c0,0.3,0,0.8,0.1,1c0.2-0.7,0.6-1.3,1.6-1.1V274"/>
			</g>
			<g transform="matrix(0.05,0,0,0.05,47.900000000000006,0)">
				<path id="aF_5_" d="M531.5,273.1c0.8,0,1.3,0.3,1.6,0.9l0-2.7h0.9l0,7h-0.8c-0.1-0.3,0-0.6-0.1-0.8c-0.3,0.6-0.7,0.9-1.6,0.9
					c-1.4,0-1.8-1-1.9-2.6C529.6,274.1,530.2,273.1,531.5,273.1z M531.7,273.8c-1.1,0-1.2,0.9-1.2,2c0,1.1,0.2,2,1.2,2
					c1.1,0,1.4-0.9,1.4-2C533.1,274.6,532.8,273.8,531.7,273.8"/>
			</g>
			<g transform="matrix(0.05,0,0,0.05,57.900000000000006,0)">
				<path id="aA_14_" d="M537.3,273.1c1.7,0,2.3,1.1,2.2,2.8h-3.6c0,1.1,0.4,1.8,1.4,1.8c0.7,0,1.2-0.3,1.3-0.8l0.7,0.2
					c-0.3,0.7-1,1.2-2.1,1.2c-1.6,0-2.4-1-2.3-2.7C535,274.1,535.7,273.1,537.3,273.1z M538.6,275.3c0.2-1.6-2-2.1-2.6-0.7
					c-0.1,0.2-0.2,0.5-0.2,0.7H538.6"/>
			</g>
			<g transform="matrix(0.05,0,0,0.05,67.9,0)">
				<path id="aF_6_" d="M542.2,273.1c0.8,0,1.3,0.3,1.6,0.9l0-2.7h0.9l0,7h-0.8c-0.1-0.3,0-0.6-0.1-0.8c-0.3,0.6-0.7,0.9-1.6,0.9
					c-1.4,0-1.8-1-1.9-2.6C540.3,274.1,540.9,273.1,542.2,273.1z M542.4,273.8c-1.1,0-1.2,0.9-1.2,2c0,1.1,0.2,2,1.2,2
					c1.1,0,1.4-0.9,1.4-2C543.8,274.6,543.5,273.8,542.4,273.8"/>
			</g>
		</g>
	</g>
	<g transform="matrix(1,0,0,1,-235,134.19999999995343) translate(87.975 38.4625)">
		<g id="k">
			<g transform="matrix(0.05,0,0,0.05,0,0)">
				<path id="aQ_1_" d="M548.8,271.7c3.2-0.2,5.8,0.2,5.7,3.3c-0.1,2.1-1.2,3.4-3.2,3.4h-2.5V271.7z M549.6,277.6
					c2.4,0.2,3.9-0.4,3.9-2.7s-1.6-2.7-3.9-2.5V277.6"/>
			</g>
			<g transform="matrix(0.05,0,0,0.05,12.950000000000001,0)">
				<path id="aA_15_" d="M557.6,273.1c1.7,0,2.3,1.1,2.2,2.8h-3.6c0,1.1,0.4,1.8,1.4,1.8c0.7,0,1.2-0.3,1.3-0.8l0.7,0.2
					c-0.3,0.7-1,1.2-2.1,1.2c-1.6,0-2.4-1-2.3-2.7C555.3,274.1,556,273.1,557.6,273.1z M559,275.3c0.2-1.6-2-2.1-2.6-0.7
					c-0.1,0.2-0.2,0.5-0.2,0.7H559"/>
			</g>
			<g transform="matrix(0.05,0,0,0.05,22.950000000000003,0)">
				<path id="aB_10_" d="M564,277.4c-0.4,0.6-0.8,1.1-1.8,1.1c-1,0-1.6-0.6-1.6-1.5c0-1.7,1.7-1.7,3.3-1.7c0.1-0.9-0.2-1.4-1.1-1.4
					c-0.6,0-1.1,0.2-1.1,0.8l-0.9-0.1c0.1-1,0.9-1.4,2-1.4c1.2,0,1.9,0.5,1.9,1.7v2.2c0,0.5,0.2,0.9,0.7,0.7v0.5
					C564.8,278.6,564,278.3,564,277.4z M561.5,276.9c0,0.5,0.3,0.9,0.9,0.9c1.1-0.1,1.7-0.8,1.6-2
					C562.8,275.9,561.5,275.7,561.5,276.9"/>
			</g>
			<g transform="matrix(0.05,0,0,0.05,32.95,0)">
				<path id="aI_4_" d="M567.2,277.1c-0.1,0.6,0.5,0.8,1,0.6v0.6c-0.9,0.3-1.9,0.1-1.9-1v-3.4h-0.6v-0.6h0.6l0.2-1.2h0.6v1.2h0.9
					v0.6h-0.9V277.1"/>
			</g>
			<g transform="matrix(0.05,0,0,0.05,37.95,0)">
				<path id="aR_2_" d="M571.1,273.8c-1.9,0-1.2,2.7-1.3,4.5H569v-7h0.9l0,2.8c0.3-0.6,0.7-1,1.6-1c2.4,0,1.4,3.1,1.6,5.2h-0.9v-3.2
					C572.2,274.2,572,273.8,571.1,273.8"/>
			</g>
			<g transform="matrix(0.05,0,0,0.05,47.95,0)">
				<path id="aC_12_" d="M577.3,274.5c-0.1-0.9-2.3-1-2.3,0c0.4,1.4,3.1,0.3,3.2,2.4s-4,2-4.2,0.2l0.7-0.1c0.1,1,2.6,1.2,2.6,0
					c-0.3-1.5-3-0.4-3.2-2.4c-0.1-1.5,2.2-1.7,3.3-1.1c0.3,0.2,0.6,0.5,0.6,0.9"/>
			</g>
		</g>
	</g>
	<path class="st0" d="M396.4,190.8c0,11.8-19.2,21.4-42.8,21.4s-42.8-9.6-42.8-21.4s19.2-21.4,42.8-21.4S396.4,179,396.4,190.8z"/>
	<g transform="matrix(1,0,0,1,-585,-25.800000000046552) translate(55.075 38.4625)">
		<g id="l">
			<g transform="matrix(0.05,0,0,0.05,0,0)">
				<path id="aT" d="M343.7,192.7V186h5v0.7h-4.1v2.1h3.9v0.7h-3.9v2.3h4.3v0.7H343.7"/>
			</g>
			<g transform="matrix(0.05,0,0,0.05,12,0)">
				<path id="aE_7_" d="M352.4,188.3c-2.1-0.4-1.4,2.4-1.5,4.4H350l0-5.1h0.8c0,0.3,0,0.8,0.1,1c0.2-0.7,0.6-1.3,1.6-1.1V188.3"/>
			</g>
			<g transform="matrix(0.05,0,0,0.05,17.95,0)">
				<path id="aE_8_" d="M355.6,188.3c-2.1-0.4-1.4,2.4-1.5,4.4h-0.9l0-5.1h0.8c0,0.3,0,0.8,0.1,1c0.2-0.7,0.6-1.3,1.6-1.1V188.3"/>
			</g>
			<g transform="matrix(0.05,0,0,0.05,23.9,0)">
				<path id="aJ_7_" d="M358.4,187.5c1.7,0,2.3,1,2.3,2.7c0,1.7-0.7,2.7-2.3,2.7s-2.2-1-2.2-2.7
					C356.1,188.4,356.9,187.5,358.4,187.5z M358.4,192.1c1.2,0,1.4-0.8,1.4-2c0-1.2-0.2-2-1.4-2c-1.2,0-1.4,0.9-1.4,2
					C357,191.3,357.3,192.1,358.4,192.1"/>
			</g>
			<g transform="matrix(0.05,0,0,0.05,33.9,0)">
				<path id="aE_9_" d="M364.1,188.3c-2.1-0.4-1.4,2.4-1.5,4.4h-0.9l0-5.1h0.8c0,0.3,0,0.8,0.1,1c0.2-0.7,0.6-1.3,1.6-1.1V188.3"/>
			</g>
		</g>
	</g>
	<path class="st0" d="M583.9,190.8c0,11.8-19.2,21.4-42.8,21.4c-23.7,0-42.8-9.6-42.8-21.4s19.2-21.4,42.8-21.4
		C564.7,169.4,583.9,179,583.9,190.8z"/>
	<g transform="matrix(1,0,0,1,-235,-25.800000000046552) translate(55.075 38.4625)">
		<g id="l_1_">
			<g transform="matrix(0.05,0,0,0.05,0,0)">
				<path id="aT_1_" d="M531.1,192.7V186h5v0.7H532v2.1h3.9v0.7H532v2.3h4.3v0.7H531.1"/>
			</g>
			<g transform="matrix(0.05,0,0,0.05,12,0)">
				<path id="aE_10_" d="M539.8,188.3c-2.1-0.4-1.4,2.4-1.5,4.4h-0.9l0-5.1h0.8c0,0.3,0,0.8,0.1,1c0.2-0.7,0.6-1.3,1.6-1.1V188.3"/>
			</g>
			<g transform="matrix(0.05,0,0,0.05,17.95,0)">
				<path id="aE_11_" d="M543,188.3c-2.1-0.4-1.4,2.4-1.5,4.4h-0.9l0-5.1h0.8c0,0.3,0,0.8,0.1,1c0.2-0.7,0.6-1.3,1.6-1.1V188.3"/>
			</g>
			<g transform="matrix(0.05,0,0,0.05,23.9,0)">
				<path id="aJ_8_" d="M545.8,187.5c1.7,0,2.3,1,2.3,2.7c0,1.7-0.7,2.7-2.3,2.7c-1.6,0-2.2-1-2.2-2.7
					C543.5,188.4,544.3,187.5,545.8,187.5z M545.8,192.1c1.2,0,1.4-0.8,1.4-2c0-1.2-0.2-2-1.4-2s-1.4,0.9-1.4,2
					C544.4,191.3,544.7,192.1,545.8,192.1"/>
			</g>
			<g transform="matrix(0.05,0,0,0.05,33.9,0)">
				<path id="aE_12_" d="M551.5,188.3c-2.1-0.4-1.4,2.4-1.5,4.4h-0.9l0-5.1h0.8c0,0.3,0,0.8,0.1,1c0.2-0.7,0.6-1.3,1.6-1.1V188.3"/>
			</g>
		</g>
	</g>
	<path class="st2" d="M353.6,213.3v31.3"/>
	<path d="M353.6,212.8h0.5v0.6h-1.1v-0.6L353.6,212.8z"/>
	<path class="st3" d="M353.6,252.8l-2.5-7.6h5L353.6,252.8z"/>
	<path class="st2" d="M541,213.3v31.3"/>
	<path d="M541,212.8h0.5v0.6h-1.1v-0.6L541,212.8z"/>
	<path class="st3" d="M541,252.8l-2.5-7.6h5L541,252.8z"/>
	<path class="st2" d="M444.6,116.9l0,0.4l-0.1,0.4l-0.1,0.4l-0.1,0.4l-0.1,0.4l-0.1,0.4L444,120l-0.2,0.4l-0.2,0.4l-0.2,0.5
		l-0.2,0.5l-0.3,0.5l-0.3,0.5l-0.3,0.5l-0.4,0.5l-0.4,0.5l-0.5,0.6l-0.6,0.6l-0.7,0.6l-0.8,0.7l-0.9,0.7l-1.1,0.8l-1.3,0.8l-1.5,0.9
		l-1.9,1l-2.4,1.2l-3.1,1.4l-4.4,1.7l-6.9,2.4l-39.6,12.2l-4.4,1.7l-3.1,1.4l-2.4,1.2l-1.9,1l-1.5,0.9l-1.3,0.8l-1.1,0.8l-0.9,0.7
		l-0.8,0.7l-0.7,0.6l-0.3,0.3"/>
	<path d="M444.6,116.4h0.5l0,0.6l-1.1,0l0-0.6L444.6,116.4z"/>
	<path class="st3" d="M354.3,167.3l0.9-8l4.5,2.1L354.3,167.3z"/>
	<path class="st2" d="M444.6,116.9l0,0.3l0,0.4l0.1,0.4l0.1,0.4l0.1,0.4l0.1,0.4l0.1,0.4l0.2,0.4l0.2,0.4l0.2,0.4l0.2,0.4l0.3,0.5
		l0.3,0.5l0.3,0.5l0.4,0.5l0.4,0.5l0.5,0.5l0.6,0.6l0.6,0.6l0.7,0.6l0.9,0.7l1,0.7l1.2,0.8l1.5,0.9l1.8,1l2.3,1.1l3,1.3l4.1,1.6
		l6.1,2.1l12.8,3.8l28.9,8.2l6.1,2.1l4.1,1.6l3,1.3l2.3,1.1l1.8,1l1.5,0.9l1.2,0.8l1,0.7l0.9,0.7l0.7,0.6l0.6,0.6"/>
	<path d="M444.6,116.4h0.5l0,0.5l-1.1,0l0-0.6L444.6,116.4z"/>
	<path class="st3" d="M540.3,167.3l-5.5-5.8l4.5-2.1L540.3,167.3z"/>
	<path class="st2" d="M541,299v74.2"/>
	<path d="M541.5,299h-1.1v-0.6h1.1V299z"/>
	<path class="st3" d="M541,381.3l-2.5-7.6h5L541,381.3z"/>
	<path class="st2" d="M397.5,405h0.2l0.7-0.1l0.7-0.1l0.7-0.1l0.7-0.1l0.7-0.2l0.7-0.2l0.7-0.2l0.7-0.3l0.7-0.3l0.7-0.3l0.8-0.4
		l0.8-0.4l0.8-0.5l0.8-0.6l0.9-0.7l0.9-0.7l0.9-0.8l1-1l1-1.1l1.1-1.3l1.2-1.5l1.3-1.8l1.4-2.1l1.6-2.6l1.7-3.2l2-4l2.3-5.1l2.7-6.8
		l3.3-9.6l4.6-15.2L463.2,237l3.3-9.6l2.7-6.8l2.3-5.1l2-4l1.7-3.2l1.6-2.6l1.4-2.1l1.3-1.8l1.2-1.5l1.1-1.3l1-1.1l1-1l0.9-0.9
		l0.9-0.7l0.9-0.7l0.8-0.6l0.8-0.5l0,0"/>
	<path d="M397.5,405.5l-0.6,0l0-0.5v-0.1l0-0.4l0.6,0L397.5,405.5z"/>
	<path class="st3" d="M496,191.3l-6.7,4.5l-1.4-4.8L496,191.3z"/>
	<path class="st2" d="M397.5,276.5l0.7,0l1.2,0.1l1.2,0.1l1.1,0.2l1.1,0.2l1.1,0.3l1.1,0.3l1.1,0.3l1.1,0.4l1.1,0.5l1.1,0.5l1.1,0.6
		l1.1,0.6l1.2,0.7l1.2,0.8l1.2,0.9l1.3,1l1.3,1.2l1.4,1.3l1.4,1.5l1.6,1.8l1.6,2.1l1.8,2.5l2,3l2.2,3.7l2.6,4.7l3.2,6.5l4.6,10.4
		l18.9,46.1l3.2,6.5l2.6,4.7l2.2,3.7l2,3l1.8,2.5l1.7,2.1l1.5,1.8l1.4,1.5l1.4,1.3l1.3,1.2l1.3,1l1.2,0.9l1.2,0.8l1.2,0.7l1.1,0.6
		l1.1,0.6l1.1,0.5l1.1,0.5l0.5,0.2"/>
	<path d="M397.5,276l0,1.1l-0.5,0v-1.1L397.5,276z"/>
	<path class="st3" d="M495.9,404.7l-8,1.1l0.9-4.9L495.9,404.7z"/>
	<path class="st2" d="M397.5,276.5h90.2"/>
	<path d="M397.5,277H397v-1.1h0.6V277z"/>
	<path class="st3" d="M495.9,276.5l-7.6,2.5v-5L495.9,276.5z"/>
</g>
</svg>
